<svg xmlns="http://www.w3.org/2000/svg" width="560" height="640" viewBox="0 0 560 640" fill="none">
  <defs>
    <linearGradient id="bg" x1="0%" y1="0%" x2="100%" y2="100%">
      <stop offset="0%" stop-color="#141210"/>
      <stop offset="100%" stop-color="#0a0a0a"/>
    </linearGradient>
    <linearGradient id="screen" x1="0%" y1="0%" x2="0%" y2="100%">
      <stop offset="0%" stop-color="#1a1814"/>
      <stop offset="100%" stop-color="#0f0e0c"/>
    </linearGradient>
    <radialGradient id="glow" cx="50%" cy="30%" r="50%">
      <stop offset="0%" stop-color="#c9a962" stop-opacity="0.15"/>
      <stop offset="100%" stop-color="#0a0a0a" stop-opacity="0"/>
    </radialGradient>
  </defs>

  <rect width="560" height="640" rx="16" fill="url(#bg)"/>
  <rect width="560" height="640" rx="16" fill="url(#glow)"/>
  <rect x="1" y="1" width="558" height="638" rx="15" stroke="#c9a962" stroke-opacity="0.2"/>

  <rect x="175" y="60" width="210" height="420" rx="24" fill="#0d0c0a" stroke="#a89f8f" stroke-opacity="0.3" stroke-width="2"/>
  <rect x="190" y="85" width="180" height="360" rx="12" fill="url(#screen)"/>

  <rect x="205" y="110" width="60" height="8" rx="2" fill="#c9a962" fill-opacity="0.6"/>
  <rect x="205" y="130" width="100" height="6" rx="2" fill="#a89f8f" fill-opacity="0.4"/>

  <polyline points="210,350 240,300 270,320 300,240 330,260 360,200" fill="none" stroke="#c9a962" stroke-width="2.5" stroke-linecap="round" stroke-linejoin="round"/>
  <circle cx="360" cy="200" r="4" fill="#d4af37"/>

  <rect x="205" y="370" width="150" height="50" rx="4" fill="#111" stroke="#c9a962" stroke-opacity="0.15"/>
  <rect x="215" y="382" width="40" height="26" rx="2" fill="#c9a962" fill-opacity="0.2"/>
  <rect x="265" y="382" width="40" height="26" rx="2" fill="#a89f8f" fill-opacity="0.15"/>
  <rect x="315" y="382" width="30" height="26" rx="2" fill="#d4af37" fill-opacity="0.2"/>

  <rect x="80" y="180" width="70" height="100" rx="6" fill="#111" stroke="#c9a962" stroke-opacity="0.1"/>
  <rect x="90" y="200" width="50" height="6" rx="1" fill="#c9a962" fill-opacity="0.4"/>
  <rect x="90" y="215" width="35" height="4" rx="1" fill="#a89f8f" fill-opacity="0.3"/>
  <polyline points="95,260 105,245 115,250 125,230" fill="none" stroke="#c9a962" stroke-width="1.5" stroke-opacity="0.5"/>

  <rect x="410" y="220" width="70" height="80" rx="6" fill="#111" stroke="#a89f8f" stroke-opacity="0.15"/>
  <circle cx="445" cy="250" r="18" fill="none" stroke="#c9a962" stroke-opacity="0.4" stroke-width="2"/>
  <path d="M445 250 L445 235 A15 15 0 0 1 455 245 Z" fill="#c9a962" fill-opacity="0.3"/>
</svg>
